<svg width="60" height="65" viewBox="0 0 60 65" fill="none" xmlns="http://www.w3.org/2000/svg">
<mask id="mask0_3372_129" style="mask-type:luminance" maskUnits="userSpaceOnUse" x="5" y="14" width="49" height="47">
<path d="M5.73645 14.736L5.5531 60.4111L53.7361 60.6046L53.9195 14.9294L5.73645 14.736Z" fill="white"/>
</mask>
<g mask="url(#mask0_3372_129)">
<path d="M14.3509 52.0483V49.5688C14.3651 48.631 13.7684 48.0058 12.8092 47.9916C12.3048 47.9844 11.7791 48.1336 11.4167 48.6878C11.1468 48.2473 10.7205 47.9844 10.1095 47.9773C9.69031 47.9773 9.27824 48.0981 8.95143 48.5599V48.0697H8.09178L8.07758 52.027H8.94434L8.95143 49.8387C8.95143 49.1496 9.33507 48.7873 9.92476 48.7944C10.4931 48.7944 10.7844 49.1709 10.7844 49.8387V52.0412H11.6441V49.8459C11.6583 49.1567 12.0561 48.8015 12.6245 48.8015C13.2142 48.8015 13.4913 49.178 13.4913 49.8459V52.0483H14.3509ZM27.2174 48.1478H25.8107V46.9401H24.9439V48.1336H24.1411V48.9151H24.9439L24.9368 50.7197C24.9368 51.6362 25.2849 52.1833 26.3009 52.1904C26.6703 52.1904 27.1037 52.0767 27.3808 51.892L27.1321 51.1531C26.8763 51.3023 26.5922 51.3733 26.3719 51.3733C25.9457 51.3733 25.8035 51.1034 25.8035 50.7055V48.9223H27.2174V48.1336V48.1478ZM34.5564 48.0768C34.0591 48.0768 33.7394 48.3042 33.512 48.6523V48.1692H32.6595L32.6453 52.1264H33.5049L33.512 49.9098C33.512 49.2562 33.7962 48.8938 34.3575 48.8938C34.528 48.8938 34.7127 48.9223 34.8975 48.9933L35.1674 48.1834C34.9756 48.1052 34.7269 48.0768 34.5564 48.0697M23.4661 48.4391C23.0541 48.1621 22.4857 48.02 21.8534 48.02C20.8516 48.02 20.2051 48.496 20.2051 49.2775C20.2051 49.924 20.6811 50.3219 21.5621 50.4497L21.9671 50.5066C22.436 50.5776 22.6633 50.6984 22.6562 50.9258C22.6562 51.2312 22.3436 51.4018 21.7539 51.4018C21.1572 51.4018 20.7309 51.2099 20.4396 50.9826L20.0346 51.6504C20.5035 51.9985 21.1003 52.1691 21.7468 52.1691C22.8907 52.1691 23.5514 51.6362 23.5585 50.8831C23.5585 50.1869 23.0399 49.8245 22.1802 49.6967L21.7752 49.6398C21.4058 49.5901 21.1074 49.5119 21.1074 49.2491C21.1074 48.9578 21.3916 48.7873 21.8605 48.7873C22.3649 48.7873 22.8552 48.9791 23.0896 49.1283L23.4661 48.4391ZM46.5135 48.1194C46.0161 48.1194 45.6965 48.3468 45.4691 48.6949V48.2118H44.6165L44.6023 52.1691H45.462L45.4691 49.9524C45.4691 49.2988 45.7533 48.9365 46.3146 48.9365C46.4851 48.9365 46.6698 48.9649 46.8545 49.0359L47.1244 48.226C46.9326 48.1478 46.684 48.1194 46.5135 48.1123M11.7506 57.1565H10.3937L10.3795 60.318H9.5127L9.5269 57.1423H8.73119V56.3537H9.5269V55.6858C9.5269 54.8972 9.93188 54.2649 10.8555 54.272C11.3173 54.272 11.6654 54.3999 11.9567 54.5704L11.6512 55.2951C11.4523 55.1743 11.1752 55.0819 10.9123 55.0819C10.5784 55.0819 10.3937 55.3022 10.3937 55.6929V56.3608H11.7436V57.1494L11.7506 57.1565ZM16.2976 58.3714C16.2976 57.1849 15.3953 56.2897 14.1733 56.2826C12.9513 56.2826 12.0419 57.1707 12.0419 58.3572C12.0419 59.5436 12.9371 60.4388 14.1591 60.4459C15.3811 60.4459 16.2905 59.5578 16.2976 58.3714ZM12.93 58.3572C12.93 57.6112 13.47 57.0925 14.1733 57.0925C14.8767 57.0925 15.4166 57.6183 15.4095 58.3643C15.4095 59.1103 14.8696 59.6289 14.1591 59.6289C13.4558 59.6289 12.9229 59.1031 12.93 58.3572ZM20.674 56.4034H19.8073L19.8002 58.5987C19.8002 59.366 19.3739 59.6431 18.8268 59.6431C18.2869 59.6431 17.8606 59.3589 17.8677 58.5916V56.3892H17.008V58.6698C16.9938 59.9273 17.8961 60.453 18.8197 60.453C19.7433 60.453 20.6527 59.9415 20.6598 58.684V56.4034H20.674ZM25.4057 57.8954C25.4057 56.9718 24.745 56.3181 23.8072 56.3181C23.4022 56.3181 22.912 56.4318 22.5923 56.9007V56.4176H21.7326L21.7184 60.3749H22.5852L22.5923 58.1867C22.5923 57.5117 23.0612 57.1423 23.6225 57.1494C24.1979 57.1494 24.5389 57.5259 24.5389 58.1867V60.3891H25.3986V57.9025M35.1532 56.4744H34.2936V56.9505C34.0236 56.5952 33.6115 56.3679 33.0503 56.3608C31.9419 56.3608 31.0681 57.2275 31.0681 58.4353C31.0681 59.6431 31.9277 60.517 33.036 60.5241C33.5973 60.5241 34.0094 60.3038 34.2794 59.9486V60.4246H35.139L35.1532 56.4673V56.4744ZM31.949 58.4353C31.949 57.7391 32.4037 57.1707 33.1497 57.1707C33.8602 57.1707 34.3362 57.7178 34.3362 58.4424C34.3362 59.1671 33.8531 59.707 33.1355 59.707C32.3895 59.707 31.9419 59.1245 31.949 58.4353ZM45.9025 58.4922C45.9025 57.3057 45.0002 56.4105 43.7782 56.4034C42.5562 56.4034 41.6468 57.2915 41.6468 58.4779C41.6468 59.6644 42.542 60.5596 43.764 60.5667C44.986 60.5667 45.8954 59.6786 45.9025 58.4922ZM42.5349 58.4779C42.5349 57.732 43.0749 57.2133 43.7782 57.2133C44.4816 57.2133 45.0215 57.7391 45.0144 58.485C45.0144 59.231 44.4744 59.7497 43.764 59.7497C43.0535 59.7497 42.5278 59.2239 42.5278 58.4779M50.3713 57.9948C50.3713 57.0712 49.7176 56.4176 48.7727 56.4176C48.3678 56.4176 47.8776 56.5313 47.5579 57.0002V56.5171H46.6982L46.684 60.4743H47.5507L47.5579 58.2861C47.5579 57.6112 48.0268 57.2417 48.588 57.2488C49.1635 57.2488 49.5045 57.6254 49.5045 58.2932V60.4885H50.3642V58.0019M38.9187 56.4815H37.5261V55.288H36.6665V56.4744H35.8708V57.2488H36.6665L36.6594 59.0392C36.6594 59.9486 37.0075 60.4885 38.0164 60.4957C38.3858 60.4957 38.8121 60.382 39.0821 60.1973L38.8405 59.4655C38.5847 59.6147 38.3077 59.6857 38.0874 59.6857C37.6611 59.6857 37.519 59.4229 37.5261 59.025V57.2559H38.9258V56.4744L38.9187 56.4815ZM30.2652 54.8617L30.251 58.4282V60.4104H29.3843V59.9273C29.1143 60.2825 28.6951 60.5028 28.1339 60.5028C27.0255 60.5028 26.1588 59.6289 26.1659 58.414C26.173 57.1991 27.0469 56.3395 28.1552 56.3466C28.7164 56.3466 29.1285 56.5739 29.4056 56.9291V54.8617H30.2723H30.2652ZM28.2404 59.6857C28.9509 59.6857 29.434 59.1458 29.434 58.4282C29.434 57.7106 28.958 57.1565 28.2475 57.1565C27.5015 57.1565 27.0469 57.7249 27.0398 58.4211C27.0398 59.1174 27.4873 59.6857 28.2333 59.6928M40.844 56.4958H39.9772L39.963 60.453H40.8298L40.844 56.4958ZM40.4106 54.5846C40.0625 54.5846 39.8067 54.8475 39.8067 55.1956C39.8067 55.5366 40.0625 55.7995 40.4106 55.7995C40.7516 55.7995 41.0216 55.5366 41.0216 55.1956C41.0216 54.8475 40.7516 54.5775 40.4106 54.5775M35.4019 50.1513C35.4019 51.352 36.2331 52.233 37.5048 52.233C38.1016 52.233 38.4995 52.1051 38.9329 51.7641L38.5208 51.0678C38.194 51.2952 37.8601 51.4231 37.4835 51.4231C36.7944 51.416 36.2971 50.9115 36.2971 50.1513C36.2971 49.3912 36.8086 48.8938 37.4906 48.8938C37.8601 48.8938 38.2011 49.0217 38.5208 49.2562L38.94 48.5599C38.5137 48.2189 38.1158 48.0839 37.5191 48.0839C36.2473 48.0839 35.409 48.9507 35.4019 50.1513ZM43.4585 50.1869V48.2118H42.6059V48.6878C42.3288 48.3326 41.9168 48.1052 41.3555 48.1052C40.2472 48.1052 39.3733 48.9649 39.3733 50.1727C39.3733 51.3804 40.233 52.2543 41.3413 52.2543C41.9026 52.2543 42.3146 52.0341 42.5917 51.6788V52.162H43.4514V50.1869H43.4585ZM40.2614 50.1727C40.2614 49.4764 40.7232 48.908 41.4621 48.9151C42.1726 48.9151 42.6486 49.4622 42.6486 50.1869C42.6486 50.9044 42.1654 51.4515 41.455 51.4515C40.709 51.4515 40.2614 50.876 40.2614 50.1798M29.8887 48.0626C28.7306 48.0626 27.9207 48.9009 27.9136 50.13C27.9136 51.3875 28.752 52.2117 29.9313 52.2117C30.5281 52.2117 31.0752 52.0696 31.5583 51.6646L31.1391 51.0252C30.8052 51.2881 30.386 51.4373 29.9882 51.4373C29.434 51.4373 28.9296 51.1744 28.8088 50.464L31.743 50.4782C31.7501 50.3716 31.7643 50.265 31.7643 50.1442C31.7643 48.908 31.0041 48.0626 29.8958 48.0626M29.8745 48.8299C30.4287 48.8299 30.7839 49.178 30.8691 49.7961H28.8159C28.9083 49.2206 29.2564 48.8299 29.8674 48.8299M51.4441 50.2224L51.4583 46.6559H50.5986L50.5915 48.7233C50.3215 48.3681 49.9095 48.1407 49.3482 48.1407C48.2399 48.1407 47.366 49.0004 47.3589 50.2082C47.3589 51.416 48.2186 52.2898 49.3269 52.2898C49.8882 52.2898 50.3002 52.0696 50.5773 51.7144V52.1975H51.4369V50.2224H51.4441ZM48.2399 50.2082C48.2399 49.5119 48.7017 48.9436 49.4477 48.9507C50.1581 48.9507 50.6341 49.4977 50.6341 50.2224C50.6341 50.94 50.151 51.487 49.4406 51.487C48.6946 51.487 48.247 50.9115 48.247 50.2153M19.1963 50.1016V48.1265H18.3437V48.6025C18.0737 48.2473 17.6546 48.02 17.0933 48.02C15.985 48.02 15.1111 48.8796 15.1111 50.0874C15.1111 51.2952 15.9708 52.1691 17.0791 52.1691C17.6404 52.1691 18.0595 51.9488 18.3295 51.5936V52.0767H19.1892V50.1016H19.1963ZM15.9921 50.0874C15.9921 49.3912 16.4539 48.8228 17.1999 48.8299C17.9103 48.8299 18.3863 49.3769 18.3863 50.1016C18.3863 50.8192 17.9032 51.3662 17.1928 51.3662C16.4468 51.3662 15.9992 50.7908 15.9992 50.0945" fill="#262626"/>
<path d="M23.2892 17.986L23.1952 41.4026L36.2249 41.4549L36.3189 18.0383L23.2892 17.986Z" fill="#F26522"/>
<path d="M24.0773 29.7046C24.0986 24.9516 26.3366 20.7315 29.8107 18.0175C27.2886 16.014 24.0915 14.8134 20.6245 14.7992C12.3974 14.7636 5.70483 21.4064 5.67641 29.6336C5.64089 37.8536 12.2837 44.5532 20.5108 44.5816C23.985 44.5959 27.182 43.4165 29.7255 41.4343C26.2727 38.6919 24.0631 34.4576 24.0844 29.7046" fill="#E51B24"/>
<path d="M52.4034 39.047V38.5639H52.5952V38.4644H52.105V38.5639H52.2968V39.047H52.3963H52.4034ZM53.3625 39.047V38.4715H53.2133L53.0357 38.8694L52.8652 38.4715H52.716V39.047H52.8226V38.6136L52.9859 38.9902H53.0996L53.263 38.6136V39.0541H53.3696L53.3625 39.047Z" fill="#262626"/>
<path d="M53.86 29.8252C53.8245 38.0523 47.1319 44.688 38.9119 44.6596C35.4377 44.6454 32.2478 43.4447 29.7256 41.4412C33.1998 38.7272 35.4377 34.5071 35.459 29.7541C35.4804 25.0011 33.2708 20.7668 29.818 18.0244C32.3543 16.0422 35.5585 14.8629 39.0327 14.8771C47.2598 14.9126 53.8955 21.6051 53.86 29.8252Z" fill="#F99F1C"/>
</g>
<mask id="mask1_3372_129" style="mask-type:luminance" maskUnits="userSpaceOnUse" x="0" y="0" width="60" height="65">
<path d="M0.262867 0L0 64.7584L59.6858 65L59.9486 0.106569L32.7309 0H0.262867Z" fill="white"/>
</mask>
<g mask="url(#mask1_3372_129)">
<path d="M57.32 0.0994644H56.7872L56.7658 4.80271H57.2987L57.3058 3.06208C57.3058 2.91999 57.3271 2.79211 57.3769 2.67844C57.4266 2.56476 57.4905 2.4653 57.5758 2.38715C57.661 2.309 57.7534 2.24505 57.8671 2.20243C57.9807 2.1598 58.0944 2.13849 58.2223 2.14559C58.4923 2.14559 58.7054 2.22374 58.8546 2.38715C59.0038 2.54345 59.0748 2.7708 59.0748 3.05498V4.80982H59.6077V2.87736C59.6148 2.69264 59.5864 2.52213 59.5224 2.36583C59.4585 2.20953 59.3732 2.08165 59.2595 1.97508C59.1459 1.86851 59.0109 1.78326 58.8546 1.71931C58.6983 1.66248 58.5207 1.62695 58.3288 1.62695C58.2365 1.62695 58.1441 1.63406 58.0518 1.64827C57.9594 1.66248 57.8671 1.6909 57.7747 1.72642C57.6895 1.76194 57.6042 1.81167 57.5189 1.86851C57.4408 1.93245 57.3697 2.0035 57.3058 2.08875V0.0994644H57.32ZM55.9275 1.698H54.6203V0.717565H54.0803V1.6909H53.4196V2.17401H54.0803V3.7015C54.0803 3.90043 54.1016 4.07094 54.1513 4.22013C54.2011 4.36933 54.2721 4.49011 54.3645 4.58247C54.4568 4.68193 54.5705 4.75298 54.6984 4.79561C54.8334 4.84534 54.9826 4.86665 55.146 4.86665C55.3378 4.86665 55.5154 4.83823 55.6646 4.7814C55.8209 4.72456 55.9559 4.65351 56.0767 4.56115L55.828 4.15619C55.7357 4.21303 55.6433 4.26987 55.5296 4.30539C55.4231 4.34802 55.3094 4.36223 55.1957 4.36223C55.1105 4.36223 55.0323 4.34802 54.9613 4.3196C54.8902 4.29118 54.8263 4.25566 54.7765 4.19882C54.7268 4.14198 54.6842 4.07094 54.6558 3.99279C54.6274 3.90753 54.6132 3.80807 54.6132 3.68729V2.17401H55.9204V1.6909L55.9275 1.698ZM52.2757 0.234452C52.2331 0.255766 52.1905 0.284184 52.1549 0.312603C52.1194 0.348126 52.0981 0.390753 52.0768 0.433381C52.0555 0.476008 52.0484 0.525741 52.0484 0.582577C52.0484 0.63231 52.0555 0.682042 52.0768 0.731774C52.0981 0.774402 52.1265 0.817029 52.1549 0.852552C52.1905 0.888075 52.226 0.916494 52.2757 0.930703C52.3183 0.952017 52.3681 0.959121 52.4249 0.959121C52.4747 0.959121 52.5244 0.952017 52.5741 0.930703C52.6239 0.909389 52.6594 0.888075 52.6949 0.852552C52.7304 0.817029 52.7588 0.781506 52.7802 0.731774C52.8015 0.689146 52.8086 0.639414 52.8086 0.582577C52.8086 0.525741 52.8015 0.476008 52.7802 0.433381C52.7588 0.383649 52.7304 0.348126 52.702 0.312603C52.6665 0.277079 52.6239 0.248661 52.5812 0.227347C52.5315 0.206033 52.4818 0.198929 52.432 0.198929C52.3823 0.198929 52.3326 0.206033 52.2828 0.227347M52.6949 1.67669H52.1621L52.1478 4.7814H52.6807L52.6949 1.67669ZM49.1213 1.66248H48.5174L47.6222 4.19882L46.7555 1.65537H46.18L47.2883 4.76719H47.9135L48.8087 2.24505L49.6897 4.77429H50.3291L51.4587 1.67669H50.8975L50.0023 4.22013L49.1213 1.66958V1.66248ZM42.8266 2.1598C42.9545 2.21664 43.0682 2.30189 43.1605 2.40136C43.2529 2.50792 43.3239 2.6216 43.3737 2.75659C43.4234 2.89157 43.4518 3.03367 43.4518 3.18997C43.4518 3.34627 43.4234 3.48836 43.3737 3.62335C43.3239 3.75833 43.2529 3.87911 43.1534 3.97858C43.0611 4.07804 42.9474 4.15619 42.8124 4.22013C42.6774 4.27697 42.5353 4.30539 42.3719 4.30539C42.2156 4.30539 42.0735 4.27697 41.9385 4.22013C41.8107 4.1633 41.697 4.08515 41.6046 3.98568C41.5123 3.88622 41.4412 3.76544 41.3844 3.63045C41.3347 3.49546 41.3062 3.34627 41.3062 3.18997C41.3062 3.03367 41.3347 2.88447 41.3844 2.74948C41.4341 2.61449 41.5123 2.49372 41.6046 2.39425C41.697 2.29479 41.8107 2.21664 41.9385 2.1598C42.0664 2.10296 42.2156 2.07454 42.3719 2.07454C42.5282 2.07454 42.6774 2.10296 42.8053 2.1598M41.7964 1.698C41.6117 1.78326 41.4625 1.90403 41.3417 2.04613V1.63406H40.8089L40.7947 6.04602H41.3275L41.3347 4.3267C41.4554 4.4759 41.6117 4.58957 41.7893 4.68193C41.9741 4.76719 42.1801 4.81692 42.4287 4.81692C42.649 4.81692 42.8479 4.7814 43.0398 4.69614C43.2316 4.61799 43.395 4.50432 43.5371 4.36223C43.6792 4.22013 43.7857 4.04962 43.871 3.85069C43.9492 3.65177 43.9918 3.43863 43.9918 3.20418C43.9918 2.96972 43.9492 2.74948 43.871 2.55766C43.7929 2.35873 43.6863 2.18822 43.5442 2.04613C43.4021 1.90403 43.2387 1.79036 43.054 1.7051C42.8692 1.61985 42.6632 1.58433 42.443 1.57722C42.1943 1.57722 41.9812 1.61985 41.8036 1.7051M39.2743 0.18472C39.2246 0.206033 39.1891 0.234452 39.1535 0.26287C39.118 0.298393 39.0896 0.341021 39.0754 0.383649C39.0541 0.426276 39.047 0.483113 39.047 0.532845C39.047 0.582577 39.0541 0.63231 39.0754 0.682042C39.0967 0.724669 39.118 0.767297 39.1535 0.80282C39.1891 0.838343 39.2246 0.866762 39.2743 0.880971C39.317 0.902285 39.3667 0.909389 39.4235 0.909389C39.4804 0.909389 39.5301 0.902285 39.5727 0.880971C39.6224 0.859657 39.658 0.838343 39.6935 0.80282C39.729 0.767297 39.7574 0.731774 39.7787 0.682042C39.8001 0.639414 39.8072 0.589682 39.8072 0.532845C39.8072 0.476008 39.8001 0.426276 39.7787 0.383649C39.7574 0.333916 39.729 0.298393 39.6935 0.26287C39.658 0.227347 39.6224 0.198929 39.5727 0.18472C39.523 0.163406 39.4732 0.156301 39.4235 0.156301C39.3738 0.156301 39.3241 0.163406 39.2743 0.18472ZM39.6864 1.63406H39.1535L39.1393 4.73877H39.6722L39.6864 1.63406ZM35.7504 0.0142092H35.2176L35.1963 4.72456H35.7291L35.7362 2.98393C35.7362 2.84184 35.7646 2.70685 35.8073 2.60028C35.857 2.48661 35.9209 2.38715 36.0062 2.309C36.0915 2.23085 36.1909 2.1669 36.2975 2.13138C36.4112 2.08875 36.5319 2.06744 36.6527 2.07454C36.9227 2.07454 37.1358 2.15269 37.285 2.3161C37.4342 2.4724 37.5053 2.69975 37.5053 2.99104V4.74587H38.0381V2.81342C38.0452 2.6287 38.0168 2.45819 37.9529 2.30189C37.8889 2.14559 37.8037 2.01771 37.69 1.91114C37.5763 1.80457 37.4413 1.71931 37.2779 1.65537C37.1216 1.59143 36.944 1.56301 36.7522 1.56301C36.6669 1.56301 36.5746 1.56301 36.4751 1.58433C36.3827 1.59854 36.2904 1.62695 36.2051 1.66248C36.1199 1.698 36.0346 1.74773 35.9494 1.80457C35.8712 1.86141 35.8002 1.93956 35.7362 2.02481V0.0142092H35.7504ZM34.2869 1.88272C34.1377 1.77615 33.953 1.698 33.7398 1.63406C33.5267 1.57012 33.2922 1.5417 33.0507 1.5417C32.8589 1.5417 32.6884 1.56301 32.5392 1.60564C32.3829 1.64827 32.255 1.71221 32.1413 1.79036C32.0347 1.86851 31.9495 1.96797 31.8855 2.08875C31.8287 2.20953 31.8003 2.33741 31.8003 2.48661C31.8003 2.72106 31.8855 2.91999 32.0489 3.06919C32.2194 3.21838 32.4752 3.31785 32.8304 3.36048L33.1928 3.4031C33.6119 3.45284 33.818 3.60203 33.818 3.82938C33.818 3.98568 33.7398 4.09936 33.5977 4.17751C33.4485 4.25566 33.2496 4.29828 32.9938 4.29828C32.866 4.29828 32.7452 4.29118 32.6386 4.26987C32.532 4.25566 32.4397 4.22724 32.3544 4.19882C32.2692 4.1704 32.191 4.13488 32.12 4.09225C32.0489 4.05673 31.985 4.007 31.9281 3.96437L31.6795 4.36223C31.779 4.44038 31.8926 4.50432 32.0063 4.55405C32.12 4.60378 32.2337 4.64641 32.3473 4.67483C32.461 4.70325 32.5747 4.73167 32.6813 4.74587C32.7878 4.76008 32.8944 4.76719 32.9938 4.76719C33.207 4.76719 33.3988 4.74587 33.5693 4.70325C33.7398 4.66062 33.8819 4.59668 34.0027 4.51142C34.1235 4.42617 34.2158 4.3267 34.2798 4.20592C34.3437 4.08515 34.3792 3.95016 34.3792 3.80096C34.3792 3.67308 34.3579 3.55941 34.3082 3.45994C34.2585 3.36048 34.1945 3.27522 34.1022 3.20418C34.0169 3.13313 33.9032 3.07629 33.7753 3.02656C33.6475 2.97683 33.4983 2.94131 33.3349 2.91999L32.9725 2.87026C32.7807 2.84184 32.6386 2.79921 32.532 2.74238C32.4255 2.67844 32.3757 2.58608 32.3757 2.4653C32.3757 2.3232 32.4397 2.20953 32.5676 2.13138C32.6955 2.04613 32.866 2.0106 33.0791 2.0106C33.1786 2.0106 33.278 2.01771 33.3775 2.03902C33.477 2.06033 33.5693 2.08165 33.6546 2.11007C33.7398 2.13849 33.818 2.1669 33.8961 2.20243C33.9672 2.23795 34.0311 2.27347 34.0808 2.30189L34.3153 1.88982L34.2869 1.88272ZM30.2017 1.64827C30.0454 1.72642 29.9104 1.8472 29.8039 1.99639V1.59143H29.2781L29.2639 4.69614H29.7968V2.96972C29.7968 2.82763 29.8181 2.69264 29.8607 2.57897C29.9034 2.4653 29.9531 2.36583 30.0312 2.28768C30.1023 2.20953 30.1875 2.14559 30.287 2.10296C30.3864 2.06033 30.493 2.03902 30.6138 2.03902C30.6991 2.03902 30.7985 2.05323 30.8909 2.07454C30.9903 2.09586 31.0756 2.12428 31.1467 2.1669L31.2745 1.64116C31.1964 1.60564 31.104 1.57722 31.0117 1.56301C30.9193 1.5488 30.8198 1.5417 30.7062 1.5417C30.5214 1.5417 30.3509 1.58433 30.1946 1.66248M27.2533 2.06744C27.3599 2.11007 27.4523 2.17401 27.5304 2.25216C27.6086 2.33031 27.6725 2.42267 27.7293 2.53634C27.7791 2.65002 27.8146 2.7708 27.8288 2.90578H25.9319C25.9532 2.76369 25.9887 2.64291 26.0455 2.53634C26.1024 2.42977 26.1663 2.33031 26.2516 2.25216C26.3297 2.17401 26.4292 2.11007 26.5429 2.06744C26.6565 2.02481 26.7773 2.0035 26.9123 2.0035C27.0402 2.0035 27.1539 2.02481 27.2604 2.06744M26.3084 1.64827C26.1166 1.72642 25.9532 1.84009 25.8182 1.97508C25.6761 2.11717 25.5695 2.28768 25.4914 2.48661C25.4132 2.68554 25.3706 2.90578 25.3706 3.14023C25.3706 3.38179 25.4061 3.60203 25.4843 3.80096C25.5624 3.99989 25.669 4.1704 25.8111 4.31249C25.9532 4.45459 26.1166 4.56826 26.3084 4.64641C26.5002 4.72456 26.7134 4.76719 26.9478 4.76719C27.0615 4.76719 27.1752 4.76719 27.2818 4.74587C27.3954 4.73167 27.502 4.70325 27.6086 4.66772C27.7151 4.6322 27.8217 4.58247 27.9212 4.52563C28.0206 4.46169 28.1272 4.39064 28.2195 4.29828L27.9354 3.92885C27.8004 4.04252 27.6512 4.13488 27.4949 4.19882C27.3315 4.26276 27.161 4.29828 26.9762 4.29118C26.8412 4.29118 26.7134 4.26987 26.5997 4.22724C26.4789 4.19172 26.3724 4.12777 26.28 4.04962C26.1876 3.97147 26.1095 3.8649 26.0455 3.74413C25.9816 3.62335 25.9461 3.48126 25.9248 3.31785H28.3688C28.3688 3.31785 28.3688 3.26812 28.3688 3.23259C28.3688 3.19707 28.3688 3.16155 28.3688 3.13313C28.3688 2.89157 28.3332 2.67844 28.2622 2.47951C28.1911 2.28058 28.0917 2.11007 27.9638 1.96797C27.8359 1.82588 27.6796 1.71221 27.502 1.63406C27.3244 1.55591 27.1254 1.51328 26.9194 1.51328C26.6992 1.51328 26.4931 1.5488 26.3013 1.62695M22.9408 1.52039C22.8485 1.53459 22.7561 1.56301 22.6638 1.59854C22.5785 1.63406 22.4932 1.68379 22.408 1.74063C22.3298 1.80457 22.2517 1.87562 22.1949 1.96087V1.55591H21.6691L21.6549 4.66062H22.1877L22.1949 2.91999C22.1949 2.7779 22.2233 2.65002 22.273 2.52924C22.3227 2.41556 22.3867 2.3161 22.4719 2.23795C22.5572 2.1598 22.6495 2.10296 22.7632 2.06033C22.8769 2.01771 22.9906 1.99639 23.1184 1.99639C23.3884 1.99639 23.6016 2.07454 23.7508 2.23795C23.9 2.40136 23.971 2.6216 23.971 2.91289V4.66772H24.4967V2.73527C24.5038 2.55055 24.4754 2.38004 24.4115 2.22374C24.3475 2.06744 24.2623 1.93956 24.1486 1.83299C24.0349 1.72642 23.9 1.64116 23.7437 1.57722C23.5874 1.51328 23.4097 1.48486 23.2179 1.48486C23.1256 1.48486 23.0332 1.49197 22.9408 1.50618M20.8094 1.53459H19.5022V0.554159H18.9694V1.52749H18.3086V2.0106H18.9694V3.53809C18.9694 3.73702 18.9907 3.90753 19.0404 4.04962C19.0901 4.19172 19.1612 4.3196 19.2535 4.41196C19.3459 4.51142 19.4596 4.58247 19.5946 4.6251C19.7296 4.67483 19.8787 4.69614 20.0492 4.69614C20.2411 4.69614 20.4116 4.66772 20.5679 4.61089C20.7242 4.55405 20.8592 4.483 20.98 4.39064L20.7313 3.98568C20.6389 4.04962 20.5395 4.09936 20.4329 4.13488C20.3263 4.17751 20.2127 4.19172 20.099 4.19172C20.0137 4.19172 19.9356 4.17751 19.8645 4.14909C19.7935 4.12067 19.7296 4.08515 19.6798 4.02831C19.6301 3.97147 19.5875 3.90753 19.5591 3.82228C19.5306 3.73702 19.5164 3.63756 19.5164 3.51678V2.0035H20.8308V1.51328L20.8094 1.53459ZM16.8167 1.57722C16.6604 1.65537 16.5254 1.77615 16.4188 1.92535V1.51328H15.8931L15.8789 4.61799H16.4117L16.4188 2.89157C16.4188 2.74948 16.4401 2.6216 16.4756 2.50082C16.5183 2.38715 16.568 2.28768 16.6462 2.20953C16.7172 2.12428 16.8025 2.06744 16.9019 2.01771C17.0014 1.97508 17.108 1.95377 17.2287 1.95377C17.3211 1.95377 17.4135 1.96087 17.5058 1.98929C17.6053 2.0106 17.6834 2.03902 17.7616 2.08165L17.8966 1.55591C17.8113 1.52038 17.726 1.49197 17.6337 1.47776C17.5413 1.46355 17.4419 1.45644 17.3282 1.45644C17.1435 1.45644 16.973 1.49907 16.8167 1.57722ZM13.6196 2.03192C13.7475 2.08875 13.8612 2.1669 13.9535 2.26637C14.0459 2.36583 14.1169 2.48661 14.1738 2.6216C14.2235 2.75659 14.2519 2.90578 14.2519 3.06208C14.2519 3.21838 14.2235 3.36758 14.1738 3.50257C14.124 3.63756 14.0459 3.75833 13.9535 3.8578C13.8612 3.95726 13.7475 4.03541 13.6125 4.09225C13.4846 4.14909 13.3354 4.17751 13.1791 4.17751C13.0228 4.17751 12.8736 4.14909 12.7457 4.08515C12.6107 4.02831 12.5042 3.94305 12.4118 3.84359C12.3194 3.74413 12.2484 3.62335 12.1916 3.48836C12.1418 3.35337 12.1205 3.21128 12.1205 3.05498C12.1205 2.89868 12.1489 2.75659 12.1987 2.6216C12.2484 2.48661 12.3195 2.36583 12.4189 2.26637C12.5113 2.1669 12.625 2.08875 12.7599 2.03192C12.8949 1.97508 13.037 1.94666 13.2004 1.94666C13.3567 1.94666 13.4988 1.97508 13.6338 2.03192M14.7776 1.51328H14.2377V1.93245C14.1169 1.78326 13.9606 1.66248 13.783 1.57722C13.5983 1.49197 13.3923 1.44223 13.1436 1.44223C12.9234 1.44223 12.7173 1.47776 12.5326 1.56301C12.3408 1.64116 12.1774 1.75484 12.0353 1.89693C11.8932 2.03902 11.7866 2.20953 11.7013 2.40846C11.6232 2.60739 11.5806 2.82053 11.5806 3.05498C11.5806 3.28943 11.6161 3.50967 11.6943 3.7086C11.7724 3.90753 11.879 4.07804 12.0211 4.22013C12.1632 4.36223 12.3266 4.4759 12.5113 4.56115C12.7031 4.63931 12.902 4.68193 13.1223 4.68904C13.3709 4.68904 13.577 4.64641 13.7617 4.56115C13.9393 4.4759 14.0956 4.35512 14.2235 4.21303V4.6322H14.7563L14.7705 1.52749L14.7776 1.51328ZM9.74758 2.01771C9.87546 2.07454 9.98913 2.1598 10.0815 2.25926C10.1739 2.35873 10.2449 2.47951 10.2946 2.61449C10.3444 2.74948 10.3728 2.89157 10.3728 3.04787C10.3728 3.20418 10.3444 3.34627 10.2946 3.48126C10.2449 3.61624 10.1739 3.73702 10.0744 3.83649C9.97494 3.93595 9.86836 4.0141 9.73338 4.07804C9.60549 4.13488 9.4563 4.1633 9.29289 4.1633C9.13659 4.1633 8.99449 4.13488 8.8595 4.07804C8.73162 4.0212 8.61797 3.94305 8.52561 3.84359C8.43325 3.74413 8.36218 3.62335 8.30534 3.48836C8.25561 3.35337 8.2272 3.20418 8.2272 3.04787C8.2272 2.89157 8.25561 2.74238 8.30534 2.60739C8.35508 2.4724 8.43325 2.35873 8.52561 2.25216C8.61797 2.15269 8.73162 2.07454 8.8595 2.01771C8.98738 1.96087 9.13659 1.93245 9.29289 1.93245C9.44919 1.93245 9.59838 1.96087 9.72626 2.01771M8.71742 1.55591C8.5327 1.64116 8.3835 1.76194 8.26272 1.90403V1.49197H7.72987L7.71567 5.90392H8.24852L8.25563 4.18461C8.37641 4.33381 8.52559 4.44748 8.71031 4.53984C8.88793 4.6251 9.10106 4.67483 9.34972 4.67483C9.56996 4.67483 9.7689 4.63931 9.96073 4.55405C10.1526 4.4759 10.3159 4.36223 10.458 4.22013C10.6001 4.07804 10.7067 3.90753 10.792 3.7086C10.8701 3.50967 10.9127 3.29654 10.9127 3.06208C10.9127 2.82763 10.8772 2.60739 10.7991 2.41557C10.7138 2.21664 10.6072 2.04613 10.4723 1.90403C10.3302 1.76194 10.1668 1.64827 9.98204 1.56301C9.79732 1.47776 9.59128 1.44223 9.37103 1.44223C9.12237 1.44223 8.90924 1.48486 8.73162 1.57012M3.32503 1.44223C3.23267 1.45644 3.1403 1.48486 3.04794 1.52039C2.96269 1.55591 2.87744 1.60564 2.79219 1.66248C2.71404 1.71931 2.63587 1.79746 2.57904 1.88272V1.47776H2.0533L2.0391 4.58247H2.57195L2.57904 2.84184C2.57904 2.69975 2.60035 2.56476 2.65009 2.45109C2.69982 2.33741 2.76376 2.23795 2.84901 2.1598C2.93427 2.08165 3.03374 2.01771 3.14031 1.98218C3.25398 1.93956 3.37476 1.91824 3.49554 1.91824C3.76551 1.91824 3.97866 2.0035 4.12786 2.1598C4.27705 2.3161 4.3481 2.54345 4.3481 2.82763V4.58247H4.87383V2.65002C4.88094 2.4653 4.85252 2.29479 4.78858 2.13849C4.72464 1.98218 4.63939 1.8543 4.52571 1.74063C4.41204 1.63406 4.27704 1.5488 4.11363 1.48486C3.95733 1.42092 3.77972 1.3925 3.5879 1.3925C3.49554 1.3925 3.40317 1.39961 3.31081 1.41382M0.838422 0H0.262951L0.241638 4.57536H0.817109L0.838422 0Z" fill="#262626"/>
</g>
</svg>
